<?xml version="1.0" encoding="UTF-8"?>
<svg id="_图层_1" xmlns="http://www.w3.org/2000/svg" version="1.1" viewBox="0 0 125 40">
  <!-- Generator: Adobe Illustrator 29.0.0, SVG Export Plug-In . SVG Version: 2.1.0 Build 186)  -->
  <defs>
    <style>
      .st0 {
        fill: #fff;
      }

      .st1 {
        fill: #2dbced;
      }

      .st2 {
        fill: #1a2236;
      }

      .st3 {
        fill: #9ed7ec;
      }
    </style>
  </defs>
  <polygon class="st1" points="94.5 2.6 119.1 1.3 118.3 40 109.5 37.8 109.6 35.3 113.5 34.6 113.5 6.6 113.2 6.3 94.5 6.3 94.5 2.6"/>
  <path class="st1" d="M82.1,8.9v29.1c0,.9-.7,1.6-1.5,1.7s-2.2,0-3.2.3c0-.3-.2-.5-.2-.8-.6-4.3,0-9.8-.2-14.3l-.4-14.3c0-1,.7-1.8,1.7-1.8h3.9-.1Z"/>
  <path class="st1" d="M99.3,9.7c-.7,9.1-4.6,17.4-12.1,22.8-.8.4-1.8-1.4-2.6-1.7,5.5-6,8.1-13.6,8.2-21.7,0,0,6.5.6,6.5.6Z"/>
  <path class="st1" d="M99.7,29.3c-4-4.2,3.2-10,6.5-4.9,2.5,3.8-2.9,8.6-6.5,4.9Z"/>
  <path class="st1" d="M86,0c4-.3,5.5,5,2.2,6.9-5.3,3-8.1-6.4-2.2-6.9Z"/>
  <path class="st2" d="M73.7,37.3c-.9,1.2-2.8-1.4-2.8-1.9.4-1.9,3.2,1.3,2.8,1.9Z"/>
  <g>
    <path class="st1" d="M20.8,30.6h.2c.8-2.4,2.2-6.5,4.1-8.2,1.6-1.4,4-.6,4.6,1.4,1.1,3.8-2,9.8-2.3,13.7,0,.4,0,.6.3.9,2.4-1.6,3.7-4.8,4.8-7.4,1.3-3.1,2.5-9,6-10.1,1.1-.4,2.7-.2,3.6.6.4.4,1.3,2,.2,1.7-.7-.2-1.1-2.5-2.8-.8s-3.3,7.5-2.4,9.8c.4,1,1.1,1.6,2,.7,1.2-1,2.4-5.2,2.8-6.8s-.3-2.2,1.8-2.2,1.5-.1,1.7.5c.2.8-1,5.9-1.2,7.3,0,.6,0,4.1.2,4.3,1.3.8,3.1-3,3.3-3.9.5-1.8.7-4.1,1.1-6,.2-.7,1.1-4.6,1.3-4.9.3-.4,3.2-.8,3.1.8s-1.2,4.6-1.5,6.5c-.2.9-.4,1.9-.5,2.8l3.3-5.8c1.2-1.5,2.2-3.5,4.5-2.4,2.1,1.1,1.7,2.9,1.4,4.8-.6,3.2-1.8,6.2-2.5,9.4.6.5,3.1-2.5,3.5-3,1.1-1.5,2.3-3.6,3.1-5.3.3-.6,1.3-3.9,1.4-4.1.5-.3.8.3.7,1-.7,3.1-5.4,12.3-8.8,12.7-.8,0-2.9-.5-3.1-1.3-1-2.9,3.3-10,2.7-13.4-1.3,1.3-2.4,3.1-3.3,4.7-.7,1.2-2.2,5.4-3,5.9-1,.7-2.2,0-3-.7-.6,2.1-3,5.2-5.4,3.7-.5-.3-1.4-1.7-1.4-2.2v-3.7l-1.3,2.2c-1.7,2.3-5,4-6.2.2l-.5-2.4c-.7,2.2-3.3,7.4-5.6,8.1-1.3.4-2.6-.5-2.9-1.7-.8-3.1,2.1-10.2,2.3-13.9,0-2-.9-1.8-1.8-.4-2.3,3.6-3.4,8.5-5.2,12.4-.9.2-2.3-.4-2.8-1.2-.7-1.3-.1-4.6,0-6.2.7-6,2.6-20.5,5.7-25.2C24.4,1.3,27.1,0,28.6,2.9c2.1,4-2.9,8.6-5.2,11.3-.8,5.4-1.6,10.8-2.4,16.2h0l-.2.2Z"/>
    <path class="st1" d="M16.5,10.8c-2.4,2.2-4-1.9-3.4-2.7,1.1-1.5,1,3.3,2.7,1.9,1.5-1.2,1.2-6.5-.9-7-2.9-.7-6.3,3.7-7.5,6-1.9,3.7-2.6,7.9-.4,11.6,2.2,3.7,6.6,3.9,5.8,9.7-.3,2.1-3,6.2-5.3,6.5-1.7.2-5.7-.7-5.9-2.7-.3-2.7,3.1-7.1,4.4-9.5C.5,21.1-.6,15.1,1.4,9.2,3.2,4,8.3-1,14.2.2c3.9.8,4.8,8.3,2.3,10.6Z"/>
    <path class="st3" d="M21,30.6c0,.2-.2.8-.3.8-.4-.2,0-.7,0-.8h.3Z"/>
    <path class="st0" d="M23.8,12.5c.4-1.7,1.5-7.7,2.9-8.6.7-.4,1.2-.4,1.3.5.3,2.8-2.2,6.2-4.2,8.1h0Z"/>
    <path class="st0" d="M7,25.6c1.3,2.4.2,6-1.5,8-.7.8-2.4,2.1-2.5.3-.2-2,2.8-6.6,4-8.3Z"/>
  </g>
</svg>